<svg xmlns="http://www.w3.org/2000/svg" viewBox="0 0 24 24" width="24" height="24" role="img" aria-label="squidbay">
  <title>squidbay</title>
  <defs>
    <linearGradient id="m" x1="0.2" y1="0" x2="0.8" y2="1">
      <stop offset="0" stop-color="#FF8A4C"/>
      <stop offset="0.5" stop-color="#FF6B35"/>
      <stop offset="1" stop-color="#E0761A"/>
    </linearGradient>
  </defs>
  <!-- Chunky by design: this mark has to survive at 20px in a nav bar and as a
       favicon, so the arms are strokes at 2.4 and the mantle carries the mass. -->
  <g fill="none" stroke="url(#m)" stroke-width="2.4" stroke-linecap="round">
    <path d="M8.2 14 C7.2 16.6 6 18.6 4.6 20.2"/>
    <path d="M10.5 14.8 C10.1 17.3 9.8 19.4 9.5 21.2"/>
    <path d="M13.5 14.8 C13.9 17.3 14.2 19.4 14.5 21.2"/>
    <path d="M15.8 14 C16.8 16.6 18 18.6 19.4 20.2"/>
  </g>
  <path d="M7.6 4.6 C5.4 3.4 3.1 4.3 2.1 6.4 C4 7.4 6.2 7 7.6 6 Z" fill="url(#m)"/>
  <path d="M16.4 4.6 C18.6 3.4 20.9 4.3 21.9 6.4 C20 7.4 17.8 7 16.4 6 Z" fill="url(#m)"/>
  <path d="M12 1.6 C14.6 1.6 16.7 5.2 16.9 9.6 C17.1 13.6 15.1 16.2 12 16.2 C8.9 16.2 6.9 13.6 7.1 9.6 C7.3 5.2 9.4 1.6 12 1.6 Z" fill="url(#m)"/>
  <ellipse cx="9.9" cy="11" rx="1.85" ry="2" fill="#1A0D06"/>
  <ellipse cx="14.1" cy="11" rx="1.85" ry="2" fill="#1A0D06"/>
  <circle cx="10.5" cy="10.3" r="0.62" fill="#FFF"/>
  <circle cx="14.7" cy="10.3" r="0.62" fill="#FFF"/>
  <circle cx="10.3" cy="5.8" r="0.95" fill="#00D9FF"/>
  <circle cx="13.7" cy="7.7" r="0.72" fill="#00D9FF"/>
</svg>
